<svg width="20" height="20" viewBox="0 0 20 20" fill="none" xmlns="http://www.w3.org/2000/svg">
<path d="M16.8915 7.07086L17.4794 10.4707C17.6263 11.3198 16.9732 12.0965 16.1124 12.0965H11.7949C11.3669 12.0965 11.0411 12.4806 11.1103 12.9033L11.6626 16.2738C11.7523 16.8214 11.7267 17.3817 11.5873 17.9187C11.4719 18.3636 11.1287 18.7209 10.6773 18.8659L10.5564 18.9047C10.2836 18.9923 9.98584 18.9719 9.72861 18.848C9.44549 18.7116 9.23836 18.4627 9.16158 18.1667L8.76516 16.6385C8.63903 16.1523 8.4553 15.6829 8.21841 15.2395C7.87228 14.5915 7.33713 14.0729 6.78085 13.5936L5.5819 12.5604C5.24385 12.2691 5.06632 11.8329 5.10479 11.388L5.78159 3.56076C5.84367 2.84281 6.44392 2.29166 7.16374 2.29166H11.0376C13.9387 2.29166 16.4145 4.313 16.8915 7.07086Z" fill="#1C274C"/>
<path fill-rule="evenodd" clip-rule="evenodd" d="M2.47305 12.7209C2.80744 12.7353 3.09384 12.4838 3.12268 12.1503L3.93234 2.78656C3.98435 2.18507 3.51057 1.66666 2.90559 1.66666C2.33574 1.66666 1.875 2.12894 1.875 2.69771V12.0965C1.875 12.4312 2.13867 12.7065 2.47305 12.7209Z" fill="#1C274C"/>
</svg>
