<svg width="18" height="18" viewBox="0 0 18 18" fill="none" xmlns="http://www.w3.org/2000/svg">
<path fill-rule="evenodd" clip-rule="evenodd" d="M9 16.5C13.1421 16.5 16.5 13.1421 16.5 9C16.5 4.85786 13.1421 1.5 9 1.5C4.85786 1.5 1.5 4.85786 1.5 9C1.5 13.1421 4.85786 16.5 9 16.5ZM9.5625 4.5C9.5625 4.18934 9.31066 3.9375 9 3.9375C8.68934 3.9375 8.4375 4.18934 8.4375 4.5V4.73755C7.21468 4.9565 6.1875 5.87521 6.1875 7.125C6.1875 8.56287 7.54708 9.5625 9 9.5625C10.0324 9.5625 10.6875 10.2418 10.6875 10.875C10.6875 11.5082 10.0324 12.1875 9 12.1875C7.96764 12.1875 7.3125 11.5082 7.3125 10.875C7.3125 10.5643 7.06066 10.3125 6.75 10.3125C6.43934 10.3125 6.1875 10.5643 6.1875 10.875C6.1875 12.1248 7.21468 13.0435 8.4375 13.2624V13.5C8.4375 13.8107 8.68934 14.0625 9 14.0625C9.31066 14.0625 9.5625 13.8107 9.5625 13.5V13.2624C10.7853 13.0435 11.8125 12.1248 11.8125 10.875C11.8125 9.43713 10.4529 8.4375 9 8.4375C7.96764 8.4375 7.3125 7.7582 7.3125 7.125C7.3125 6.4918 7.96764 5.8125 9 5.8125C10.0324 5.8125 10.6875 6.4918 10.6875 7.125C10.6875 7.43566 10.9393 7.6875 11.25 7.6875C11.5607 7.6875 11.8125 7.43566 11.8125 7.125C11.8125 5.87521 10.7853 4.9565 9.5625 4.73755V4.5Z" fill="#195960"/>
</svg>
