<svg width="24" height="24" viewBox="0 0 24 24" fill="none" xmlns="http://www.w3.org/2000/svg">
<g id="Vector">
<path id="Vector_2" d="M11.9998 9.81812V14.4654H18.458C18.1744 15.9599 17.3234 17.2254 16.047 18.0763L19.9416 21.0982C22.2107 19.0037 23.5198 15.9273 23.5198 12.2728C23.5198 11.4219 23.4434 10.6036 23.3016 9.81825L11.9998 9.81812Z" fill="#4285F4"/>
<path id="Vector_3" d="M5.27468 14.2839L4.39631 14.9563L1.28717 17.3781C3.26171 21.2944 7.30868 23.9999 11.9996 23.9999C15.2395 23.9999 17.9558 22.9308 19.9413 21.0981L16.0468 18.0763C14.9777 18.7963 13.614 19.2327 11.9996 19.2327C8.87957 19.2327 6.22874 17.1273 5.27958 14.2909L5.27468 14.2839Z" fill="#34A853"/>
<path id="Vector_4" d="M1.28718 6.62183C0.469042 8.23631 0 10.0581 0 11.9999C0 13.9417 0.469042 15.7636 1.28718 17.378C1.28718 17.3889 5.27997 14.2799 5.27997 14.2799C5.03998 13.5599 4.89812 12.7963 4.89812 11.9998C4.89812 11.2033 5.03998 10.4398 5.27997 9.71976L1.28718 6.62183Z" fill="#FBBC05"/>
<path id="Vector_5" d="M11.9998 4.77818C13.7671 4.77818 15.338 5.38907 16.5925 6.56727L20.0289 3.13095C17.9452 1.18917 15.2398 0 11.9998 0C7.30893 0 3.26171 2.69454 1.28717 6.62183L5.27984 9.72001C6.22888 6.88362 8.87982 4.77818 11.9998 4.77818Z" fill="#EA4335"/>
</g>
</svg>
