<svg width="217" height="268" viewBox="0 0 217 268" fill="none" xmlns="http://www.w3.org/2000/svg">
<g clip-path="url(#clip0_5_253)">
<path d="M161.209 18.7745H50.8666C39.2544 18.7745 29.825 26.1933 29.825 35.3619V233.08C29.825 242.249 39.2544 249.685 50.8666 249.685H161.209C172.821 249.685 182.163 242.249 182.163 233.08V35.3619C182.163 26.1933 172.734 18.7745 161.209 18.7745Z" fill="#5A5A5A"/>
<path d="M160.528 24.0237H51.4605C42.7295 24.0237 35.5526 29.6403 35.5526 36.5692V231.873C35.5526 238.872 42.6771 244.419 51.4605 244.419H160.528C169.259 244.419 176.436 238.802 176.436 231.873V36.5692C176.436 29.6403 169.311 24.0237 160.528 24.0237Z" fill="#E3ECFF"/>
<path d="M24.6389 83.1468C21.4248 83.1468 18.3424 81.8674 16.0697 79.5901C13.797 77.3129 12.5203 74.2242 12.5203 71.0037L40.5991 24.0587H64.8189L36.74 70.8987C36.7539 72.5007 36.4512 74.0896 35.8495 75.5739C35.2477 77.0581 34.3588 78.4084 33.234 79.5469C32.1091 80.6854 30.7706 81.5896 29.2954 82.2075C27.8203 82.8253 26.2377 83.1445 24.6389 83.1468Z" fill="#037EE6"/>
<path d="M48.8062 83.1468C47.2074 83.1445 45.6248 82.8253 44.1496 82.2075C42.6745 81.5896 41.336 80.6854 40.2111 79.5469C39.0863 78.4084 38.1974 77.0581 37.5956 75.5739C36.9939 74.0896 36.6912 72.5007 36.705 70.8987L64.7839 23.9537H89.0037L60.9248 70.8987C60.9387 72.5022 60.6354 74.0925 60.0326 75.5779C59.4298 77.0633 58.5393 78.4144 57.4126 79.5531C56.2859 80.6919 54.9453 81.5957 53.4681 82.2125C51.991 82.8293 50.4065 83.1468 48.8062 83.1468Z" fill="#03EB97"/>
<path d="M72.991 83.1468C69.78 83.1421 66.7021 81.8607 64.4332 79.584C62.1643 77.3072 60.8899 74.2212 60.8899 71.0037L88.9513 24.0587H113.189L85.1096 70.8987C85.1235 72.5022 84.8202 74.0925 84.2174 75.5779C83.6146 77.0633 82.7242 78.4144 81.5975 79.5531C80.4708 80.6918 79.1301 81.5957 77.653 82.2125C76.1758 82.8293 74.5913 83.1468 72.991 83.1468Z" fill="#037EE6"/>
<path d="M97.1759 83.1468C93.9618 83.1468 90.8794 81.8674 88.6067 79.5901C86.334 77.3129 85.0573 74.2242 85.0573 71.0037L113.136 24.0587H137.356L109.277 70.8987C109.291 72.5007 108.988 74.0896 108.386 75.5739C107.785 77.0581 106.896 78.4084 105.771 79.5469C104.646 80.6854 103.308 81.5896 101.832 82.2075C100.357 82.8253 98.7747 83.1445 97.1759 83.1468Z" fill="#03EB97"/>
<path d="M121.361 83.1468C118.147 83.1468 115.064 81.8674 112.792 79.5901C110.519 77.3129 109.242 74.2242 109.242 71.0037L137.321 24.0587H161.541L133.462 70.8987C133.476 72.5007 133.173 74.0896 132.571 75.5739C131.97 77.0581 131.081 78.4084 129.956 79.5469C128.831 80.6854 127.492 81.5896 126.017 82.2075C124.542 82.8253 122.959 83.1445 121.361 83.1468Z" fill="#037EE6"/>
<path d="M161.588 24.025L133.3 70.9125C133.238 72.5448 133.982 74.159 134.562 75.6853C135.143 77.2116 136.025 78.6048 137.156 79.7815C138.286 80.9583 139.642 81.8943 141.142 82.5337C142.643 83.1731 144.256 83.5026 145.886 83.5026C147.516 83.5026 149.13 83.1731 150.63 82.5337C152.13 81.8943 153.486 80.9583 154.616 79.7815C155.747 78.6048 156.629 77.2116 157.21 75.6853C157.79 74.159 158.058 72.531 157.996 70.8987L176.61 39.7537V36.4992C176.61 29.9377 169.847 24.4624 161.588 24.025Z" fill="#03EB97"/>
<path d="M124.137 206.047H74.0039V209.144H124.137V206.047Z" fill="#7AA5EA"/>
<path d="M158.66 115.254L134.038 103.094H118.811C118.923 103.77 118.981 104.455 118.986 105.141C118.986 108.658 117.591 112.032 115.109 114.519C112.627 117.006 109.26 118.404 105.75 118.404C102.239 118.404 98.8727 117.006 96.3904 114.519C93.9081 112.032 92.5136 108.658 92.5136 105.141C92.5183 104.455 92.5766 103.77 92.6882 103.094H77.3915L52.7701 115.254V135.096H74.1611V186.38H137.216V135.096H158.607L158.66 115.254Z" fill="#037EE6"/>
<path d="M105.75 112.157C103.086 112.239 100.45 111.595 98.1223 110.295C95.7946 108.995 93.8622 107.087 92.531 104.773C92.531 104.896 92.531 105.018 92.531 105.141C92.531 108.658 93.9255 112.032 96.4078 114.519C98.8901 117.006 102.257 118.404 105.767 118.404C109.278 118.404 112.644 117.006 115.127 114.519C117.609 112.032 119.003 108.658 119.003 105.141C119.003 105.018 119.003 104.896 119.003 104.773C117.669 107.092 115.731 109.004 113.397 110.304C111.063 111.605 108.419 112.245 105.75 112.157Z" fill="#1540BA"/>
<path d="M81.722 128.78H96.2679V136.706C96.2679 138.465 95.5706 140.151 94.3295 141.395C93.0884 142.639 91.405 143.337 89.6498 143.337H88.3576C86.6024 143.337 84.919 142.639 83.6779 141.395C82.4368 140.151 81.7395 138.465 81.7395 136.706V128.78H81.722Z" fill="#1540BA"/>
<path d="M124.137 198.838H74.0039V201.935H124.137V198.838Z" fill="#7AA5EA"/>
<path d="M124.137 213.239H74.0039V216.336H124.137V213.239Z" fill="#7AA5EA"/>
<path d="M136.832 198.838H130.127V205.557H136.832V198.838Z" fill="#037EE6"/>
<path d="M136.832 209.144H130.127V215.863H136.832V209.144Z" fill="#03EB97"/>
<path d="M30.5584 266.535C29.9969 266.167 29.5134 265.692 29.1356 265.136C28.7579 264.58 28.4933 263.955 28.357 263.297C28.2207 262.639 28.2155 261.96 28.3415 261.3C28.4676 260.639 28.7225 260.01 29.0916 259.449L52.1764 224.279L60.7153 229.913L37.6131 265.118C37.2433 265.676 36.7673 266.155 36.2124 266.528C35.6575 266.901 35.0345 267.161 34.3792 267.293C33.7239 267.425 33.0491 267.426 32.3935 267.295C31.7378 267.165 31.1142 266.907 30.5584 266.535Z" fill="#8C968C"/>
<path d="M67.7246 222.422L55.8207 214.575L47.3559 227.467L59.2599 235.315L67.7246 222.422Z" fill="#323232"/>
<path d="M93.4096 224.539C116.125 219.796 130.703 197.5 125.97 174.738C121.237 151.977 98.985 137.37 76.2694 142.112C53.5539 146.855 38.9762 169.151 43.7093 191.913C48.4425 214.674 70.694 229.281 93.4096 224.539Z" stroke="#646464" stroke-width="3.1" stroke-miterlimit="10"/>
<path opacity="0.31" d="M93.4096 224.539C116.125 219.796 130.703 197.5 125.97 174.738C121.237 151.977 98.985 137.37 76.2694 142.112C53.5539 146.855 38.9762 169.151 43.7093 191.913C48.4425 214.674 70.694 229.281 93.4096 224.539Z" fill="white"/>
<path opacity="0.31" d="M113.643 190.247C111.572 193.402 108.615 195.87 105.144 197.34C101.674 198.811 97.8458 199.217 94.145 198.507C90.4442 197.797 87.0365 196.004 84.3528 193.354C81.6691 190.704 79.83 187.316 79.068 183.618C78.3061 179.92 78.6555 176.08 80.0721 172.581C81.4887 169.082 83.9088 166.083 87.0265 163.963C90.1442 161.843 93.8193 160.696 97.5872 160.669C101.355 160.641 105.046 161.734 108.194 163.809C112.416 166.591 115.361 170.939 116.383 175.898C117.405 180.856 116.419 186.017 113.643 190.247Z" fill="white"/>
</g>
<defs>
<clipPath id="clip0_5_253">
<rect width="217" height="267.375" fill="white"/>
</clipPath>
</defs>
</svg>
