<svg width="20" height="20" viewBox="0 0 20 20" fill="none" xmlns="http://www.w3.org/2000/svg">
<path fill-rule="evenodd" clip-rule="evenodd" d="M11.5026 4.44443C11.5026 2.91031 12.7519 1.66666 14.293 1.66666C15.8341 1.66666 17.0834 2.91031 17.0834 4.44443C17.0834 5.97856 15.8341 7.22221 14.293 7.22221C13.5148 7.22221 12.8116 6.90495 12.306 6.39455L8.44314 9.02461C8.47885 9.20206 8.49756 9.38537 8.49756 9.57264C8.49756 9.9435 8.42428 10.298 8.29141 10.622L12.527 13.4048C13.0077 13.0134 13.6229 12.7778 14.293 12.7778C15.8341 12.7778 17.0834 14.0214 17.0834 15.5555C17.0834 17.0897 15.8341 18.3333 14.293 18.3333C12.7519 18.3333 11.5026 17.0897 11.5026 15.5555C11.5026 15.1537 11.5886 14.7712 11.7432 14.4259L7.5418 11.6656C7.05171 12.0915 6.40975 12.3504 5.70715 12.3504C4.16605 12.3504 2.91675 11.1068 2.91675 9.57264C2.91675 8.03852 4.16605 6.79486 5.70715 6.79486C6.59334 6.79486 7.38219 7.20604 7.89295 7.84597L11.6367 5.29701C11.5496 5.02798 11.5026 4.74132 11.5026 4.44443Z" fill="#1C274C"/>
</svg>
