<svg width="29" height="28" viewBox="0 0 29 28" fill="none" xmlns="http://www.w3.org/2000/svg">
<path fill-rule="evenodd" clip-rule="evenodd" d="M6.13935 3.70018C4.74854 5.06701 4.74854 7.2669 4.74854 11.6667V16.3333C4.74854 20.7331 4.74854 22.933 6.13935 24.2998C7.53016 25.6667 9.76865 25.6667 14.2456 25.6667C18.7226 25.6667 20.9611 25.6667 22.3519 24.2998C23.7427 22.933 23.7427 20.7331 23.7427 16.3333V11.6667C23.7427 7.2669 23.7427 5.06701 22.3519 3.70018C20.9611 2.33334 18.7226 2.33334 14.2456 2.33334C9.76865 2.33334 7.53016 2.33334 6.13935 3.70018ZM10.6842 4.95834C10.1925 4.95834 9.79386 5.35009 9.79386 5.83334C9.79386 6.31659 10.1925 6.70834 10.6842 6.70834H17.807C18.2987 6.70834 18.6974 6.31659 18.6974 5.83334C18.6974 5.35009 18.2987 4.95834 17.807 4.95834H10.6842ZM14.2456 22.1667C15.5569 22.1667 16.6199 21.122 16.6199 19.8333C16.6199 18.5447 15.5569 17.5 14.2456 17.5C12.9343 17.5 11.8713 18.5447 11.8713 19.8333C11.8713 21.122 12.9343 22.1667 14.2456 22.1667Z" fill="#1C274C"/>
</svg>
